<svg width="41" height="40" viewBox="0 0 41 40" fill="none" xmlns="http://www.w3.org/2000/svg">
<g id="vuesax/bold/cup">
<g id="cup">
<path id="Vector" d="M19.25 30.4166H15.5C13.6667 30.4166 12.1667 31.9166 12.1667 33.7499V34.1666H10.5C9.81667 34.1666 9.25 34.7332 9.25 35.4166C9.25 36.0999 9.81667 36.6666 10.5 36.6666H30.5C31.1833 36.6666 31.75 36.0999 31.75 35.4166C31.75 34.7332 31.1833 34.1666 30.5 34.1666H28.8333V33.7499C28.8333 31.9166 27.3333 30.4166 25.5 30.4166H21.75V26.5999C21.3333 26.6499 20.9167 26.6666 20.5 26.6666C20.0833 26.6666 19.6667 26.6499 19.25 26.5999V30.4166Z" fill="#44BFC3"/>
<path id="Vector_2" d="M31.3 19.4C32.4 18.9833 33.3667 18.3 34.1334 17.5333C35.6834 15.8166 36.7 13.7666 36.7 11.3666C36.7 8.96665 34.8167 7.08331 32.4167 7.08331H31.4834C30.4 4.86665 28.1334 3.33331 25.5 3.33331H15.5C12.8667 3.33331 10.6 4.86665 9.51671 7.08331H8.58338C6.18338 7.08331 4.30005 8.96665 4.30005 11.3666C4.30005 13.7666 5.31672 15.8166 6.86672 17.5333C7.63338 18.3 8.60005 18.9833 9.70005 19.4C11.4334 23.6666 15.6 26.6666 20.5 26.6666C25.4 26.6666 29.5667 23.6666 31.3 19.4ZM25.2334 14.0833L24.2 15.35C24.0334 15.5333 23.9167 15.9 23.9334 16.15L24.0334 17.7833C24.1 18.7833 23.3834 19.3 22.45 18.9333L20.9334 18.3333C20.7 18.25 20.3 18.25 20.0667 18.3333L18.55 18.9333C17.6167 19.3 16.9 18.7833 16.9667 17.7833L17.0667 16.15C17.0834 15.9 16.9667 15.5333 16.8 15.35L15.7667 14.0833C15.1167 13.3166 15.4 12.4666 16.3667 12.2166L17.95 11.8166C18.2 11.75 18.5 11.5166 18.6334 11.3L19.5167 9.93331C20.0667 9.08331 20.9334 9.08331 21.4834 9.93331L22.3667 11.3C22.5 11.5166 22.8 11.75 23.05 11.8166L24.6334 12.2166C25.6 12.4666 25.8834 13.3166 25.2334 14.0833Z" fill="#44BFC3"/>
</g>
</g>
</svg>
